<?xml version="1.0" encoding="UTF-8" standalone="no"?>
<svg width="122px" height="50px" viewBox="0 0 122 50" version="1.1" xmlns="http://www.w3.org/2000/svg" xmlns:xlink="http://www.w3.org/1999/xlink">
    <!-- Generator: Sketch 3.7.2 (28276) - http://www.bohemiancoding.com/sketch -->
    <title>Slice 1</title>
    <desc>Created with Sketch.</desc>
    <defs></defs>
    <g id="Page-1" stroke="none" stroke-width="1" fill="none" fill-rule="evenodd">
        <g id="Group" fill="#FFFFFF">
            <path d="M50.097,50 L0,50 L0,0 L50.097,0 L50.097,50 L50.097,50 Z M45.65,4.34 L4.313,4.34 L4.313,45.54 L45.65,45.54 L45.65,4.34 L45.65,4.34 Z" id="Shape"></path>
            <path d="M18.472,33.711 L10.83,33.711 L10.83,16.255 L17.622,16.255 C18.804,16.255 19.823,16.396 20.682,16.679 C21.539,16.962 22.184,17.345 22.617,17.827 C23.4,18.726 23.791,19.742 23.791,20.874 C23.791,22.24 23.349,23.255 22.467,23.921 C22.168,24.155 21.959,24.3 21.843,24.358 C21.726,24.417 21.518,24.512 21.218,24.645 C22.3,24.878 23.162,25.365 23.803,26.105 C24.443,26.845 24.764,27.765 24.764,28.866 C24.764,30.081 24.347,31.154 23.515,32.088 C22.551,33.171 20.869,33.711 18.472,33.711 L18.472,33.711 Z M14.726,23.323 L16.574,23.323 C17.656,23.323 18.459,23.207 18.984,22.973 C19.508,22.74 19.771,22.236 19.771,21.461 C19.771,20.688 19.529,20.175 19.047,19.926 C18.564,19.676 17.748,19.551 16.599,19.551 L14.726,19.551 L14.726,23.323 L14.726,23.323 Z M14.726,30.414 L17.398,30.414 C18.513,30.414 19.349,30.277 19.908,30.003 C20.465,29.729 20.744,29.188 20.744,28.381 C20.744,27.572 20.449,27.04 19.858,26.781 C19.267,26.523 18.322,26.394 17.024,26.394 L14.727,26.394 L14.726,30.414 L14.726,30.414 L14.726,30.414 Z" id="Shape"></path>
            <polygon id="Shape" points="39.05 16.255 39.05 19.726 30.36 19.726 30.36 23.323 38.176 23.323 38.176 26.645 30.36 26.645 30.36 30.266 39.325 30.266 39.325 33.711 26.463 33.711 26.463 16.255"></polygon>
            <polygon id="Shape" points="71.281 22.723 66.561 32.264 64.236 32.264 59.543 22.723 59.543 33.711 55.647 33.711 55.647 16.255 60.917 16.255 65.411 25.846 69.932 16.255 75.177 16.255 75.177 33.711 71.281 33.711"></polygon>
            <path d="M90.836,33.711 L89.211,29.94 L81.895,29.94 L80.27,33.711 L76.125,33.711 L83.667,16.255 L87.438,16.255 L94.98,33.711 L90.836,33.711 L90.836,33.711 Z M85.564,21.45 L83.367,26.521 L87.736,26.521 L85.564,21.45 L85.564,21.45 Z" id="Shape"></path>
            <polygon id="Shape" points="101.448 19.626 101.448 33.711 97.553 33.711 97.553 19.626 92.607 19.626 92.607 16.255 106.395 16.255 106.395 19.626"></polygon>
            <polygon id="Shape" points="120.753 16.255 120.753 19.726 112.062 19.726 112.062 23.323 119.88 23.323 119.88 26.645 112.062 26.645 112.062 30.266 121.025 30.266 121.025 33.711 108.167 33.711 108.167 16.255"></polygon>
            <g transform="translate(90.000000, 37.000000)" id="Shape">
                <path d="M0.945,8.344 C0.793,8.188 0.716,7.995 0.716,7.772 C0.716,7.549 0.793,7.362 0.945,7.206 C1.101,7.052 1.291,6.976 1.513,6.976 C1.735,6.976 1.927,7.052 2.085,7.206 C2.242,7.362 2.322,7.551 2.322,7.772 C2.322,7.997 2.242,8.188 2.085,8.344 C1.927,8.502 1.735,8.581 1.513,8.581 C1.291,8.581 1.104,8.502 0.945,8.344 L0.945,8.344 Z"></path>
                <path d="M8.057,7.34 C8.495,7.34 8.873,7.266 9.19,7.118 C9.506,6.972 9.836,6.734 10.184,6.412 L11.003,7.252 C10.205,8.139 9.234,8.581 8.094,8.581 C6.954,8.581 6.006,8.214 5.253,7.48 C4.504,6.745 4.126,5.816 4.126,4.693 C4.126,3.573 4.51,2.636 5.275,1.888 C6.041,1.138 7.009,0.765 8.179,0.765 C9.349,0.765 10.325,1.197 11.111,2.06 L10.3,2.945 C9.942,2.599 9.6,2.359 9.281,2.222 C8.959,2.084 8.583,2.017 8.15,2.017 C7.388,2.017 6.748,2.263 6.23,2.755 C5.71,3.248 5.453,3.878 5.453,4.644 C5.453,5.413 5.711,6.051 6.224,6.566 C6.74,7.081 7.352,7.34 8.057,7.34 L8.057,7.34 Z"></path>
                <path d="M19.251,7.453 C18.486,8.199 17.544,8.57 16.423,8.57 C15.299,8.57 14.358,8.199 13.594,7.453 C12.83,6.708 12.449,5.779 12.449,4.667 C12.449,3.557 12.83,2.627 13.594,1.883 C14.358,1.139 15.299,0.768 16.423,0.768 C17.544,0.768 18.486,1.139 19.251,1.883 C20.014,2.627 20.395,3.557 20.395,4.667 C20.395,5.779 20.014,6.708 19.251,7.453 L19.251,7.453 Z M18.316,2.729 C17.8,2.198 17.17,1.932 16.421,1.932 C15.671,1.932 15.04,2.198 14.525,2.729 C14.01,3.264 13.754,3.911 13.754,4.667 C13.754,5.428 14.011,6.073 14.525,6.605 C15.041,7.138 15.671,7.404 16.421,7.404 C17.168,7.404 17.8,7.138 18.316,6.605 C18.832,6.074 19.087,5.427 19.087,4.667 C19.087,3.91 18.832,3.264 18.316,2.729 L18.316,2.729 Z"></path>
                <polygon points="23.816 8.494 22.542 8.494 22.542 0.949 24.529 0.949 26.806 5.689 29.082 0.949 31.058 0.949 31.058 8.494 29.785 8.494 29.785 2.6 27.15 7.835 26.439 7.835 23.816 2.6 23.816 8.494"></polygon>
            </g>
        </g>
    </g>
</svg>